<mxfile host="app.diagrams.net" modified="2024-06-22T18:49:14.641Z" agent="Mozilla/5.0 (Windows NT 10.0; Win64; x64) AppleWebKit/537.36 (KHTML, like Gecko) Chrome/126.0.0.0 Safari/537.36" etag="uPRO5pXpuKBfK8xHp5uQ" version="24.6.2" type="device">
  <diagram name="Strona-1" id="phahms1ATUr2txW3k0mA">
    <mxGraphModel dx="1433" dy="1749" grid="1" gridSize="10" guides="1" tooltips="1" connect="1" arrows="1" fold="1" page="1" pageScale="1" pageWidth="827" pageHeight="1169" math="0" shadow="0">
      <root>
        <mxCell id="0" />
        <mxCell id="1" parent="0" />
        <mxCell id="Xvyh82UJu0Wd6cr_U1TT-1" value="Klient WWW" style="verticalAlign=top;align=left;spacingTop=8;spacingLeft=2;spacingRight=12;shape=cube;size=10;direction=south;fontStyle=4;html=1;whiteSpace=wrap;" vertex="1" parent="1">
          <mxGeometry x="310" y="-60" width="180" height="120" as="geometry" />
        </mxCell>
        <mxCell id="Xvyh82UJu0Wd6cr_U1TT-2" value="Serwer WWW" style="verticalAlign=top;align=left;spacingTop=8;spacingLeft=2;spacingRight=12;shape=cube;size=10;direction=south;fontStyle=4;html=1;whiteSpace=wrap;" vertex="1" parent="1">
          <mxGeometry x="40" y="130" width="180" height="120" as="geometry" />
        </mxCell>
        <mxCell id="Xvyh82UJu0Wd6cr_U1TT-3" value="Database Engine" style="verticalAlign=top;align=left;spacingTop=8;spacingLeft=2;spacingRight=12;shape=cube;size=10;direction=south;fontStyle=4;html=1;whiteSpace=wrap;" vertex="1" parent="1">
          <mxGeometry x="310" y="130" width="180" height="120" as="geometry" />
        </mxCell>
        <mxCell id="Xvyh82UJu0Wd6cr_U1TT-4" value="Baza Danych" style="verticalAlign=top;align=left;spacingTop=8;spacingLeft=2;spacingRight=12;shape=cube;size=10;direction=south;fontStyle=4;html=1;whiteSpace=wrap;" vertex="1" parent="1">
          <mxGeometry x="580" y="120" width="180" height="120" as="geometry" />
        </mxCell>
        <mxCell id="Xvyh82UJu0Wd6cr_U1TT-5" value="Interfejs Graficzny" style="verticalAlign=top;align=left;spacingTop=8;spacingLeft=2;spacingRight=12;shape=cube;size=10;direction=south;fontStyle=4;html=1;whiteSpace=wrap;" vertex="1" parent="1">
          <mxGeometry x="310" y="310" width="180" height="120" as="geometry" />
        </mxCell>
        <mxCell id="Xvyh82UJu0Wd6cr_U1TT-9" value="" style="group" vertex="1" connectable="0" parent="1">
          <mxGeometry x="130" as="geometry" />
        </mxCell>
        <mxCell id="Xvyh82UJu0Wd6cr_U1TT-7" value="" style="endArrow=none;html=1;rounded=0;" edge="1" parent="Xvyh82UJu0Wd6cr_U1TT-9" source="Xvyh82UJu0Wd6cr_U1TT-2">
          <mxGeometry width="50" height="50" relative="1" as="geometry">
            <mxPoint y="130" as="sourcePoint" />
            <mxPoint as="targetPoint" />
          </mxGeometry>
        </mxCell>
        <mxCell id="Xvyh82UJu0Wd6cr_U1TT-8" value="" style="endArrow=none;html=1;rounded=0;entryX=0.496;entryY=0.996;entryDx=0;entryDy=0;entryPerimeter=0;" edge="1" parent="Xvyh82UJu0Wd6cr_U1TT-9" target="Xvyh82UJu0Wd6cr_U1TT-1">
          <mxGeometry width="50" height="50" relative="1" as="geometry">
            <mxPoint as="sourcePoint" />
            <mxPoint x="110" y="-20" as="targetPoint" />
          </mxGeometry>
        </mxCell>
        <mxCell id="Xvyh82UJu0Wd6cr_U1TT-11" value="" style="endArrow=none;html=1;rounded=0;entryX=0;entryY=0;entryDx=65;entryDy=180;entryPerimeter=0;exitX=0.534;exitY=-0.007;exitDx=0;exitDy=0;exitPerimeter=0;" edge="1" parent="1" source="Xvyh82UJu0Wd6cr_U1TT-2" target="Xvyh82UJu0Wd6cr_U1TT-3">
          <mxGeometry width="50" height="50" relative="1" as="geometry">
            <mxPoint x="230" y="380" as="sourcePoint" />
            <mxPoint x="280" y="330" as="targetPoint" />
          </mxGeometry>
        </mxCell>
        <mxCell id="Xvyh82UJu0Wd6cr_U1TT-12" value="" style="endArrow=none;html=1;rounded=0;entryX=0.493;entryY=1.001;entryDx=0;entryDy=0;entryPerimeter=0;" edge="1" parent="1" target="Xvyh82UJu0Wd6cr_U1TT-5">
          <mxGeometry width="50" height="50" relative="1" as="geometry">
            <mxPoint x="120" y="370" as="sourcePoint" />
            <mxPoint x="230" y="390" as="targetPoint" />
          </mxGeometry>
        </mxCell>
        <mxCell id="Xvyh82UJu0Wd6cr_U1TT-13" value="" style="endArrow=none;html=1;rounded=0;" edge="1" parent="1">
          <mxGeometry width="50" height="50" relative="1" as="geometry">
            <mxPoint x="120" y="370" as="sourcePoint" />
            <mxPoint x="120" y="250" as="targetPoint" />
          </mxGeometry>
        </mxCell>
        <mxCell id="Xvyh82UJu0Wd6cr_U1TT-14" value="" style="endArrow=none;html=1;rounded=0;exitX=0;exitY=0;exitDx=54.99999999999999;exitDy=0;exitPerimeter=0;entryX=0;entryY=0;entryDx=65;entryDy=180;entryPerimeter=0;" edge="1" parent="1" source="Xvyh82UJu0Wd6cr_U1TT-3" target="Xvyh82UJu0Wd6cr_U1TT-4">
          <mxGeometry width="50" height="50" relative="1" as="geometry">
            <mxPoint x="580" y="340" as="sourcePoint" />
            <mxPoint x="630" y="290" as="targetPoint" />
          </mxGeometry>
        </mxCell>
        <mxCell id="Xvyh82UJu0Wd6cr_U1TT-15" value="&amp;lt;&amp;lt;HTTP/HTTPS&amp;gt;&amp;gt;" style="text;html=1;align=center;verticalAlign=middle;whiteSpace=wrap;rounded=0;" vertex="1" parent="1">
          <mxGeometry x="160" width="60" height="30" as="geometry" />
        </mxCell>
        <mxCell id="Xvyh82UJu0Wd6cr_U1TT-16" value="&amp;lt;&amp;lt;HTTP/HTTPS&amp;gt;&amp;gt;" style="text;html=1;align=center;verticalAlign=middle;whiteSpace=wrap;rounded=0;" vertex="1" parent="1">
          <mxGeometry x="150" y="330" width="60" height="30" as="geometry" />
        </mxCell>
        <mxCell id="Xvyh82UJu0Wd6cr_U1TT-17" value="&amp;lt;&amp;lt;SQL&amp;gt;&amp;gt;" style="text;html=1;align=center;verticalAlign=middle;whiteSpace=wrap;rounded=0;" vertex="1" parent="1">
          <mxGeometry x="520" y="160" width="60" height="30" as="geometry" />
        </mxCell>
        <mxCell id="Xvyh82UJu0Wd6cr_U1TT-18" value="&amp;lt;&amp;lt;JDBC&amp;gt;&amp;gt;" style="text;html=1;align=center;verticalAlign=middle;whiteSpace=wrap;rounded=0;" vertex="1" parent="1">
          <mxGeometry x="230" y="165" width="60" height="30" as="geometry" />
        </mxCell>
        <mxCell id="Xvyh82UJu0Wd6cr_U1TT-19" value="1" style="text;html=1;align=center;verticalAlign=middle;whiteSpace=wrap;rounded=0;" vertex="1" parent="1">
          <mxGeometry x="110" y="250" width="60" height="30" as="geometry" />
        </mxCell>
        <mxCell id="Xvyh82UJu0Wd6cr_U1TT-20" value="1" style="text;html=1;align=center;verticalAlign=middle;whiteSpace=wrap;rounded=0;" vertex="1" parent="1">
          <mxGeometry x="260" y="340" width="60" height="30" as="geometry" />
        </mxCell>
        <mxCell id="Xvyh82UJu0Wd6cr_U1TT-21" value="1" style="text;html=1;align=center;verticalAlign=middle;whiteSpace=wrap;rounded=0;" vertex="1" parent="1">
          <mxGeometry x="540" y="180" width="60" height="30" as="geometry" />
        </mxCell>
        <mxCell id="Xvyh82UJu0Wd6cr_U1TT-22" value="1" style="text;html=1;align=center;verticalAlign=middle;whiteSpace=wrap;rounded=0;" vertex="1" parent="1">
          <mxGeometry x="470" y="180" width="60" height="30" as="geometry" />
        </mxCell>
        <mxCell id="Xvyh82UJu0Wd6cr_U1TT-23" value="1" style="text;html=1;align=center;verticalAlign=middle;whiteSpace=wrap;rounded=0;" vertex="1" parent="1">
          <mxGeometry x="270" y="195" width="60" height="30" as="geometry" />
        </mxCell>
        <mxCell id="Xvyh82UJu0Wd6cr_U1TT-24" value="1" style="text;html=1;align=center;verticalAlign=middle;whiteSpace=wrap;rounded=0;" vertex="1" parent="1">
          <mxGeometry x="200" y="195" width="60" height="30" as="geometry" />
        </mxCell>
        <mxCell id="Xvyh82UJu0Wd6cr_U1TT-25" value="1..*" style="text;html=1;align=center;verticalAlign=middle;whiteSpace=wrap;rounded=0;" vertex="1" parent="1">
          <mxGeometry x="260" width="60" height="30" as="geometry" />
        </mxCell>
        <mxCell id="Xvyh82UJu0Wd6cr_U1TT-26" value="1" style="text;html=1;align=center;verticalAlign=middle;whiteSpace=wrap;rounded=0;" vertex="1" parent="1">
          <mxGeometry x="110" y="100" width="60" height="30" as="geometry" />
        </mxCell>
      </root>
    </mxGraphModel>
  </diagram>
</mxfile>
